# xmcd
#
# Track frame offsets:
#	150
#	19253
#	32284
#	48644
#	66324
#	85064
#	103487
#	119898
#	138577
#	160370
#	173893
#
# Disc length: 2527 seconds
#
# Revision: 0
# Processed by: cddbd v1.5.1PL0 Copyright (c) Steve Scherf et al.
# Submitted via: dBpowerAMP V4.0
#
DISCID=a009dd0b
DTITLE=Sugarland - Sugarland
DYEAR=1900
DGENRE=Country
TTITLE0=Baby Girl
TTITLE1=Down to Mississippi (Up to No Good)
TTITLE2=Fly Away
TTITLE3=Hello
TTITLE4=Just Might (Make Me Believe)
TTITLE5=Small Town (Jericho)
TTITLE6=Something More
TTITLE7=Speed of Life
TTITLE8=Stand Back Up
TTITLE9=Tennessee
TTITLE10=Time, Time, Time
EXTD=
EXTT0=
EXTT1=
EXTT2=
EXTT3=
EXTT4=
EXTT5=
EXTT6=
EXTT7=
EXTT8=
EXTT9=
EXTT10=
PLAYORDER=
